<?xml version="1.0" encoding="UTF-8" standalone="no"?>
<svg
   xmlns:dc="http://purl.org/dc/elements/1.1/"
   xmlns:cc="http://creativecommons.org/ns#"
   xmlns:rdf="http://www.w3.org/1999/02/22-rdf-syntax-ns#"
   xmlns:svg="http://www.w3.org/2000/svg"
   xmlns="http://www.w3.org/2000/svg"
   viewBox="0 0 201.29466 946.66669"
   height="946.66669"
   width="201.29466"
   xml:space="preserve"
   id="svg2"
   version="1.1"><metadata
     id="metadata8"><rdf:RDF><cc:Work
         rdf:about=""><dc:format>image/svg+xml</dc:format><dc:type
           rdf:resource="http://purl.org/dc/dcmitype/StillImage" /></cc:Work></rdf:RDF></metadata><defs
     id="defs6"><clipPath
       id="clipPath18"
       clipPathUnits="userSpaceOnUse"><path
         id="path16"
         d="M 0,710 H 150.971 V 0 H 0 Z" /></clipPath></defs><g
     transform="matrix(1.3333333,0,0,-1.3333333,0,946.66667)"
     id="g10"><g
       id="g12"><g
         clip-path="url(#clipPath18)"
         id="g14"><g
           transform="translate(47.5091,663)"
           id="g20"><path
             id="path22"
             style="fill:#000000;fill-opacity:1;fill-rule:nonzero;stroke:none"
             d="m 0,0 c 0,-2.322 -1.882,-4.205 -4.205,-4.205 -2.322,0 -4.205,1.883 -4.205,4.205 0,2.322 1.883,4.205 4.205,4.205 C -1.882,4.205 0,2.322 0,0" /></g><g
           transform="translate(47.5091,663)"
           id="g24"><path
             id="path26"
             style="fill:none;stroke:#000000;stroke-width:1;stroke-linecap:butt;stroke-linejoin:miter;stroke-miterlimit:10;stroke-dasharray:none;stroke-opacity:1"
             d="m 0,0 c 0,-2.322 -1.882,-4.205 -4.205,-4.205 -2.322,0 -4.205,1.883 -4.205,4.205 0,2.322 1.883,4.205 4.205,4.205 C -1.882,4.205 0,2.322 0,0 Z" /></g><g
           transform="translate(61.5091,663)"
           id="g28"><path
             id="path30"
             style="fill:#000000;fill-opacity:1;fill-rule:nonzero;stroke:none"
             d="m 0,0 c 0,-2.322 -1.882,-4.205 -4.205,-4.205 -2.322,0 -4.205,1.883 -4.205,4.205 0,2.322 1.883,4.205 4.205,4.205 C -1.882,4.205 0,2.322 0,0" /></g><g
           transform="translate(61.5091,663)"
           id="g32"><path
             id="path34"
             style="fill:none;stroke:#000000;stroke-width:1;stroke-linecap:butt;stroke-linejoin:miter;stroke-miterlimit:10;stroke-dasharray:none;stroke-opacity:1"
             d="m 0,0 c 0,-2.322 -1.882,-4.205 -4.205,-4.205 -2.322,0 -4.205,1.883 -4.205,4.205 0,2.322 1.883,4.205 4.205,4.205 C -1.882,4.205 0,2.322 0,0 Z" /></g><g
           transform="translate(75.5091,663)"
           id="g36"><path
             id="path38"
             style="fill:#000000;fill-opacity:1;fill-rule:nonzero;stroke:none"
             d="m 0,0 c 0,-2.322 -1.882,-4.205 -4.205,-4.205 -2.322,0 -4.205,1.883 -4.205,4.205 0,2.322 1.883,4.205 4.205,4.205 C -1.882,4.205 0,2.322 0,0" /></g><g
           transform="translate(75.5091,663)"
           id="g40"><path
             id="path42"
             style="fill:none;stroke:#000000;stroke-width:1;stroke-linecap:butt;stroke-linejoin:miter;stroke-miterlimit:10;stroke-dasharray:none;stroke-opacity:1"
             d="m 0,0 c 0,-2.322 -1.882,-4.205 -4.205,-4.205 -2.322,0 -4.205,1.883 -4.205,4.205 0,2.322 1.883,4.205 4.205,4.205 C -1.882,4.205 0,2.322 0,0 Z" /></g><g
           transform="translate(89.5091,663)"
           id="g44"><path
             id="path46"
             style="fill:#000000;fill-opacity:1;fill-rule:nonzero;stroke:none"
             d="m 0,0 c 0,-2.322 -1.882,-4.205 -4.205,-4.205 -2.322,0 -4.205,1.883 -4.205,4.205 0,2.322 1.883,4.205 4.205,4.205 C -1.882,4.205 0,2.322 0,0" /></g><g
           transform="translate(89.5091,663)"
           id="g48"><path
             id="path50"
             style="fill:none;stroke:#000000;stroke-width:1;stroke-linecap:butt;stroke-linejoin:miter;stroke-miterlimit:10;stroke-dasharray:none;stroke-opacity:1"
             d="m 0,0 c 0,-2.322 -1.882,-4.205 -4.205,-4.205 -2.322,0 -4.205,1.883 -4.205,4.205 0,2.322 1.883,4.205 4.205,4.205 C -1.882,4.205 0,2.322 0,0 Z" /></g><g
           transform="translate(89.5091,648)"
           id="g52"><path
             id="path54"
             style="fill:#000000;fill-opacity:1;fill-rule:nonzero;stroke:none"
             d="m 0,0 c 0,-2.322 -1.882,-4.205 -4.205,-4.205 -2.322,0 -4.205,1.883 -4.205,4.205 0,2.322 1.883,4.205 4.205,4.205 C -1.882,4.205 0,2.322 0,0" /></g><g
           transform="translate(89.5091,648)"
           id="g56"><path
             id="path58"
             style="fill:none;stroke:#000000;stroke-width:1;stroke-linecap:butt;stroke-linejoin:miter;stroke-miterlimit:10;stroke-dasharray:none;stroke-opacity:1"
             d="m 0,0 c 0,-2.322 -1.882,-4.205 -4.205,-4.205 -2.322,0 -4.205,1.883 -4.205,4.205 0,2.322 1.883,4.205 4.205,4.205 C -1.882,4.205 0,2.322 0,0 Z" /></g><g
           transform="translate(61.5091,648)"
           id="g60"><path
             id="path62"
             style="fill:#000000;fill-opacity:1;fill-rule:nonzero;stroke:none"
             d="m 0,0 c 0,-2.322 -1.882,-4.205 -4.205,-4.205 -2.322,0 -4.205,1.883 -4.205,4.205 0,2.322 1.883,4.205 4.205,4.205 C -1.882,4.205 0,2.322 0,0" /></g><g
           transform="translate(61.5091,648)"
           id="g64"><path
             id="path66"
             style="fill:none;stroke:#000000;stroke-width:1;stroke-linecap:butt;stroke-linejoin:miter;stroke-miterlimit:10;stroke-dasharray:none;stroke-opacity:1"
             d="m 0,0 c 0,-2.322 -1.882,-4.205 -4.205,-4.205 -2.322,0 -4.205,1.883 -4.205,4.205 0,2.322 1.883,4.205 4.205,4.205 C -1.882,4.205 0,2.322 0,0 Z" /></g><g
           transform="translate(62.5091,626)"
           id="g68"><path
             id="path70"
             style="fill:#000000;fill-opacity:1;fill-rule:nonzero;stroke:none"
             d="m 0,0 c 0,-2.322 -1.882,-4.205 -4.205,-4.205 -2.322,0 -4.205,1.883 -4.205,4.205 0,2.322 1.883,4.205 4.205,4.205 C -1.882,4.205 0,2.322 0,0" /></g><g
           transform="translate(62.5091,626)"
           id="g72"><path
             id="path74"
             style="fill:none;stroke:#000000;stroke-width:1;stroke-linecap:butt;stroke-linejoin:miter;stroke-miterlimit:10;stroke-dasharray:none;stroke-opacity:1"
             d="m 0,0 c 0,-2.322 -1.882,-4.205 -4.205,-4.205 -2.322,0 -4.205,1.883 -4.205,4.205 0,2.322 1.883,4.205 4.205,4.205 C -1.882,4.205 0,2.322 0,0 Z" /></g><g
           transform="translate(76.5091,597)"
           id="g76"><path
             id="path78"
             style="fill:#000000;fill-opacity:1;fill-rule:nonzero;stroke:none"
             d="m 0,0 c 0,-2.322 -1.882,-4.205 -4.205,-4.205 -2.322,0 -4.205,1.883 -4.205,4.205 0,2.322 1.883,4.205 4.205,4.205 C -1.882,4.205 0,2.322 0,0" /></g><g
           transform="translate(76.5091,597)"
           id="g80"><path
             id="path82"
             style="fill:none;stroke:#000000;stroke-width:1;stroke-linecap:butt;stroke-linejoin:miter;stroke-miterlimit:10;stroke-dasharray:none;stroke-opacity:1"
             d="m 0,0 c 0,-2.322 -1.882,-4.205 -4.205,-4.205 -2.322,0 -4.205,1.883 -4.205,4.205 0,2.322 1.883,4.205 4.205,4.205 C -1.882,4.205 0,2.322 0,0 Z" /></g><g
           transform="translate(48.5091,584)"
           id="g84"><path
             id="path86"
             style="fill:#000000;fill-opacity:1;fill-rule:nonzero;stroke:none"
             d="m 0,0 c 0,-2.322 -1.882,-4.205 -4.205,-4.205 -2.322,0 -4.205,1.883 -4.205,4.205 0,2.322 1.883,4.205 4.205,4.205 C -1.882,4.205 0,2.322 0,0" /></g><g
           transform="translate(48.5091,584)"
           id="g88"><path
             id="path90"
             style="fill:none;stroke:#000000;stroke-width:1;stroke-linecap:butt;stroke-linejoin:miter;stroke-miterlimit:10;stroke-dasharray:none;stroke-opacity:1"
             d="m 0,0 c 0,-2.322 -1.882,-4.205 -4.205,-4.205 -2.322,0 -4.205,1.883 -4.205,4.205 0,2.322 1.883,4.205 4.205,4.205 C -1.882,4.205 0,2.322 0,0 Z" /></g><g
           transform="translate(62.5091,569)"
           id="g92"><path
             id="path94"
             style="fill:#000000;fill-opacity:1;fill-rule:nonzero;stroke:none"
             d="m 0,0 c 0,-2.322 -1.882,-4.205 -4.205,-4.205 -2.322,0 -4.205,1.883 -4.205,4.205 0,2.322 1.883,4.205 4.205,4.205 C -1.882,4.205 0,2.322 0,0" /></g><g
           transform="translate(62.5091,569)"
           id="g96"><path
             id="path98"
             style="fill:none;stroke:#000000;stroke-width:1;stroke-linecap:butt;stroke-linejoin:miter;stroke-miterlimit:10;stroke-dasharray:none;stroke-opacity:1"
             d="m 0,0 c 0,-2.322 -1.882,-4.205 -4.205,-4.205 -2.322,0 -4.205,1.883 -4.205,4.205 0,2.322 1.883,4.205 4.205,4.205 C -1.882,4.205 0,2.322 0,0 Z" /></g><g
           transform="translate(63.5091,549)"
           id="g100"><path
             id="path102"
             style="fill:#000000;fill-opacity:1;fill-rule:nonzero;stroke:none"
             d="m 0,0 c 0,-2.322 -1.882,-4.205 -4.205,-4.205 -2.322,0 -4.205,1.883 -4.205,4.205 0,2.322 1.883,4.205 4.205,4.205 C -1.882,4.205 0,2.322 0,0" /></g><g
           transform="translate(63.5091,549)"
           id="g104"><path
             id="path106"
             style="fill:none;stroke:#000000;stroke-width:1;stroke-linecap:butt;stroke-linejoin:miter;stroke-miterlimit:10;stroke-dasharray:none;stroke-opacity:1"
             d="m 0,0 c 0,-2.322 -1.882,-4.205 -4.205,-4.205 -2.322,0 -4.205,1.883 -4.205,4.205 0,2.322 1.883,4.205 4.205,4.205 C -1.882,4.205 0,2.322 0,0 Z" /></g><g
           transform="translate(62.5091,417)"
           id="g108"><path
             id="path110"
             style="fill:#000000;fill-opacity:1;fill-rule:nonzero;stroke:none"
             d="m 0,0 c 0,-2.322 -1.882,-4.205 -4.205,-4.205 -2.322,0 -4.205,1.883 -4.205,4.205 0,2.322 1.883,4.205 4.205,4.205 C -1.882,4.205 0,2.322 0,0" /></g><g
           transform="translate(62.5091,417)"
           id="g112"><path
             id="path114"
             style="fill:none;stroke:#000000;stroke-width:1;stroke-linecap:butt;stroke-linejoin:miter;stroke-miterlimit:10;stroke-dasharray:none;stroke-opacity:1"
             d="m 0,0 c 0,-2.322 -1.882,-4.205 -4.205,-4.205 -2.322,0 -4.205,1.883 -4.205,4.205 0,2.322 1.883,4.205 4.205,4.205 C -1.882,4.205 0,2.322 0,0 Z" /></g><g
           transform="translate(66.0306,393)"
           id="g116"><path
             id="path118"
             style="fill:#000000;fill-opacity:1;fill-rule:nonzero;stroke:none"
             d="m 0,0 c 0,-4.267 -3.459,-7.727 -7.727,-7.727 -4.266,0 -7.726,3.46 -7.726,7.727 0,4.267 3.46,7.727 7.726,7.727 C -3.459,7.727 0,4.267 0,0" /></g><g
           transform="translate(66.0306,393)"
           id="g120"><path
             id="path122"
             style="fill:none;stroke:#000000;stroke-width:1;stroke-linecap:butt;stroke-linejoin:miter;stroke-miterlimit:10;stroke-dasharray:none;stroke-opacity:1"
             d="m 0,0 c 0,-4.267 -3.459,-7.727 -7.727,-7.727 -4.266,0 -7.726,3.46 -7.726,7.727 0,4.267 3.46,7.727 7.726,7.727 C -3.459,7.727 0,4.267 0,0 Z" /></g><g
           transform="translate(66.0306,316)"
           id="g124"><path
             id="path126"
             style="fill:#000000;fill-opacity:1;fill-rule:nonzero;stroke:none"
             d="m 0,0 c 0,-4.268 -3.459,-7.727 -7.727,-7.727 -4.266,0 -7.726,3.459 -7.726,7.727 0,4.268 3.46,7.727 7.726,7.727 C -3.459,7.727 0,4.268 0,0" /></g><g
           transform="translate(66.0306,316)"
           id="g128"><path
             id="path130"
             style="fill:none;stroke:#000000;stroke-width:1;stroke-linecap:butt;stroke-linejoin:miter;stroke-miterlimit:10;stroke-dasharray:none;stroke-opacity:1"
             d="m 0,0 c 0,-4.268 -3.459,-7.727 -7.727,-7.727 -4.266,0 -7.726,3.459 -7.726,7.727 0,4.268 3.46,7.727 7.726,7.727 C -3.459,7.727 0,4.268 0,0 Z" /></g><g
           transform="translate(66.0306,239)"
           id="g132"><path
             id="path134"
             style="fill:#000000;fill-opacity:1;fill-rule:nonzero;stroke:none"
             d="m 0,0 c 0,-4.268 -3.459,-7.727 -7.727,-7.727 -4.266,0 -7.726,3.459 -7.726,7.727 0,4.268 3.46,7.727 7.726,7.727 C -3.459,7.727 0,4.268 0,0" /></g><g
           transform="translate(66.0306,239)"
           id="g136"><path
             id="path138"
             style="fill:none;stroke:#000000;stroke-width:1;stroke-linecap:butt;stroke-linejoin:miter;stroke-miterlimit:10;stroke-dasharray:none;stroke-opacity:1"
             d="m 0,0 c 0,-4.268 -3.459,-7.727 -7.727,-7.727 -4.266,0 -7.726,3.459 -7.726,7.727 0,4.268 3.46,7.727 7.726,7.727 C -3.459,7.727 0,4.268 0,0 Z" /></g><g
           transform="translate(66.0306,163)"
           id="g140"><path
             id="path142"
             style="fill:#000000;fill-opacity:1;fill-rule:nonzero;stroke:none"
             d="m 0,0 c 0,-4.268 -3.459,-7.727 -7.727,-7.727 -4.266,0 -7.726,3.459 -7.726,7.727 0,4.268 3.46,7.727 7.726,7.727 C -3.459,7.727 0,4.268 0,0" /></g><g
           transform="translate(66.0306,163)"
           id="g144"><path
             id="path146"
             style="fill:none;stroke:#000000;stroke-width:1;stroke-linecap:butt;stroke-linejoin:miter;stroke-miterlimit:10;stroke-dasharray:none;stroke-opacity:1"
             d="m 0,0 c 0,-4.268 -3.459,-7.727 -7.727,-7.727 -4.266,0 -7.726,3.459 -7.726,7.727 0,4.268 3.46,7.727 7.726,7.727 C -3.459,7.727 0,4.268 0,0 Z" /></g><g
           transform="translate(76.5091,507)"
           id="g148"><path
             id="path150"
             style="fill:#000000;fill-opacity:1;fill-rule:nonzero;stroke:none"
             d="m 0,0 c 0,-2.322 -1.882,-4.205 -4.205,-4.205 -2.322,0 -4.205,1.883 -4.205,4.205 0,2.322 1.883,4.205 4.205,4.205 C -1.882,4.205 0,2.322 0,0" /></g><g
           transform="translate(76.5091,507)"
           id="g152"><path
             id="path154"
             style="fill:none;stroke:#000000;stroke-width:1;stroke-linecap:butt;stroke-linejoin:miter;stroke-miterlimit:10;stroke-dasharray:none;stroke-opacity:1"
             d="m 0,0 c 0,-2.322 -1.882,-4.205 -4.205,-4.205 -2.322,0 -4.205,1.883 -4.205,4.205 0,2.322 1.883,4.205 4.205,4.205 C -1.882,4.205 0,2.322 0,0 Z" /></g><g
           transform="translate(62.5091,493)"
           id="g156"><path
             id="path158"
             style="fill:#000000;fill-opacity:1;fill-rule:nonzero;stroke:none"
             d="m 0,0 c 0,-2.322 -1.882,-4.205 -4.205,-4.205 -2.322,0 -4.205,1.883 -4.205,4.205 0,2.322 1.883,4.205 4.205,4.205 C -1.882,4.205 0,2.322 0,0" /></g><g
           transform="translate(62.5091,493)"
           id="g160"><path
             id="path162"
             style="fill:none;stroke:#000000;stroke-width:1;stroke-linecap:butt;stroke-linejoin:miter;stroke-miterlimit:10;stroke-dasharray:none;stroke-opacity:1"
             d="m 0,0 c 0,-2.322 -1.882,-4.205 -4.205,-4.205 -2.322,0 -4.205,1.883 -4.205,4.205 0,2.322 1.883,4.205 4.205,4.205 C -1.882,4.205 0,2.322 0,0 Z" /></g><g
           transform="translate(62.5091,473)"
           id="g164"><path
             id="path166"
             style="fill:#000000;fill-opacity:1;fill-rule:nonzero;stroke:none"
             d="m 0,0 c 0,-2.322 -1.882,-4.205 -4.205,-4.205 -2.322,0 -4.205,1.883 -4.205,4.205 0,2.322 1.883,4.205 4.205,4.205 C -1.882,4.205 0,2.322 0,0" /></g><g
           transform="translate(62.5091,473)"
           id="g168"><path
             id="path170"
             style="fill:none;stroke:#000000;stroke-width:1;stroke-linecap:butt;stroke-linejoin:miter;stroke-miterlimit:10;stroke-dasharray:none;stroke-opacity:1"
             d="m 0,0 c 0,-2.322 -1.882,-4.205 -4.205,-4.205 -2.322,0 -4.205,1.883 -4.205,4.205 0,2.322 1.883,4.205 4.205,4.205 C -1.882,4.205 0,2.322 0,0 Z" /></g><g
           transform="translate(87.6136,451.0708)"
           id="g172"><path
             id="path174"
             style="fill:#000000;fill-opacity:1;fill-rule:nonzero;stroke:none"
             d="m 0,0 c 0,-1.401 -1.136,-2.537 -2.537,-2.537 -1.401,0 -2.536,1.136 -2.536,2.537 0,1.4 1.135,2.536 2.536,2.536 C -1.136,2.536 0,1.4 0,0" /></g><g
           transform="translate(87.6136,451.0708)"
           id="g176"><path
             id="path178"
             style="fill:none;stroke:#000000;stroke-width:1;stroke-linecap:butt;stroke-linejoin:miter;stroke-miterlimit:10;stroke-dasharray:none;stroke-opacity:1"
             d="m 0,0 c 0,-1.401 -1.136,-2.537 -2.537,-2.537 -1.401,0 -2.536,1.136 -2.536,2.537 0,1.4 1.135,2.536 2.536,2.536 C -1.136,2.536 0,1.4 0,0 Z" /></g><g
           transform="translate(61.6136,535.0708)"
           id="g180"><path
             id="path182"
             style="fill:#000000;fill-opacity:1;fill-rule:nonzero;stroke:none"
             d="m 0,0 c 0,-1.401 -1.136,-2.537 -2.537,-2.537 -1.401,0 -2.536,1.136 -2.536,2.537 0,1.4 1.135,2.536 2.536,2.536 C -1.136,2.536 0,1.4 0,0" /></g><g
           transform="translate(61.6136,535.0708)"
           id="g184"><path
             id="path186"
             style="fill:none;stroke:#000000;stroke-width:1;stroke-linecap:butt;stroke-linejoin:miter;stroke-miterlimit:10;stroke-dasharray:none;stroke-opacity:1"
             d="m 0,0 c 0,-1.401 -1.136,-2.537 -2.537,-2.537 -1.401,0 -2.536,1.136 -2.536,2.537 0,1.4 1.135,2.536 2.536,2.536 C -1.136,2.536 0,1.4 0,0 Z" /></g><g
           transform="translate(76.5091,521)"
           id="g188"><path
             id="path190"
             style="fill:#000000;fill-opacity:1;fill-rule:nonzero;stroke:none"
             d="m 0,0 c 0,-2.322 -1.882,-4.205 -4.205,-4.205 -2.322,0 -4.205,1.883 -4.205,4.205 0,2.322 1.883,4.205 4.205,4.205 C -1.882,4.205 0,2.322 0,0" /></g><g
           transform="translate(76.5091,521)"
           id="g192"><path
             id="path194"
             style="fill:none;stroke:#000000;stroke-width:1;stroke-linecap:butt;stroke-linejoin:miter;stroke-miterlimit:10;stroke-dasharray:none;stroke-opacity:1"
             d="m 0,0 c 0,-2.322 -1.882,-4.205 -4.205,-4.205 -2.322,0 -4.205,1.883 -4.205,4.205 0,2.322 1.883,4.205 4.205,4.205 C -1.882,4.205 0,2.322 0,0 Z" /></g><g
           transform="translate(76.5091,535)"
           id="g196"><path
             id="path198"
             style="fill:#000000;fill-opacity:1;fill-rule:nonzero;stroke:none"
             d="m 0,0 c 0,-2.322 -1.882,-4.205 -4.205,-4.205 -2.322,0 -4.205,1.883 -4.205,4.205 0,2.322 1.883,4.205 4.205,4.205 C -1.882,4.205 0,2.322 0,0" /></g><g
           transform="translate(76.5091,535)"
           id="g200"><path
             id="path202"
             style="fill:none;stroke:#000000;stroke-width:1;stroke-linecap:butt;stroke-linejoin:miter;stroke-miterlimit:10;stroke-dasharray:none;stroke-opacity:1"
             d="m 0,0 c 0,-2.322 -1.882,-4.205 -4.205,-4.205 -2.322,0 -4.205,1.883 -4.205,4.205 0,2.322 1.883,4.205 4.205,4.205 C -1.882,4.205 0,2.322 0,0 Z" /></g><g
           transform="translate(49.5091,521)"
           id="g204"><path
             id="path206"
             style="fill:#000000;fill-opacity:1;fill-rule:nonzero;stroke:none"
             d="m 0,0 c 0,-2.322 -1.882,-4.205 -4.205,-4.205 -2.322,0 -4.205,1.883 -4.205,4.205 0,2.322 1.883,4.205 4.205,4.205 C -1.882,4.205 0,2.322 0,0" /></g><g
           transform="translate(49.5091,521)"
           id="g208"><path
             id="path210"
             style="fill:none;stroke:#000000;stroke-width:1;stroke-linecap:butt;stroke-linejoin:miter;stroke-miterlimit:10;stroke-dasharray:none;stroke-opacity:1"
             d="m 0,0 c 0,-2.322 -1.882,-4.205 -4.205,-4.205 -2.322,0 -4.205,1.883 -4.205,4.205 0,2.322 1.883,4.205 4.205,4.205 C -1.882,4.205 0,2.322 0,0 Z" /></g><g
           transform="translate(49.5091,430)"
           id="g212"><path
             id="path214"
             style="fill:#000000;fill-opacity:1;fill-rule:nonzero;stroke:none"
             d="m 0,0 c 0,-2.322 -1.882,-4.205 -4.205,-4.205 -2.322,0 -4.205,1.883 -4.205,4.205 0,2.322 1.883,4.205 4.205,4.205 C -1.882,4.205 0,2.322 0,0" /></g><g
           transform="translate(49.5091,430)"
           id="g216"><path
             id="path218"
             style="fill:none;stroke:#000000;stroke-width:1;stroke-linecap:butt;stroke-linejoin:miter;stroke-miterlimit:10;stroke-dasharray:none;stroke-opacity:1"
             d="m 0,0 c 0,-2.322 -1.882,-4.205 -4.205,-4.205 -2.322,0 -4.205,1.883 -4.205,4.205 0,2.322 1.883,4.205 4.205,4.205 C -1.882,4.205 0,2.322 0,0 Z" /></g><g
           transform="translate(76.5091,430)"
           id="g220"><path
             id="path222"
             style="fill:#000000;fill-opacity:1;fill-rule:nonzero;stroke:none"
             d="m 0,0 c 0,-2.322 -1.882,-4.205 -4.205,-4.205 -2.322,0 -4.205,1.883 -4.205,4.205 0,2.322 1.883,4.205 4.205,4.205 C -1.882,4.205 0,2.322 0,0" /></g><g
           transform="translate(76.5091,430)"
           id="g224"><path
             id="path226"
             style="fill:none;stroke:#000000;stroke-width:1;stroke-linecap:butt;stroke-linejoin:miter;stroke-miterlimit:10;stroke-dasharray:none;stroke-opacity:1"
             d="m 0,0 c 0,-2.322 -1.882,-4.205 -4.205,-4.205 -2.322,0 -4.205,1.883 -4.205,4.205 0,2.322 1.883,4.205 4.205,4.205 C -1.882,4.205 0,2.322 0,0 Z" /></g><g
           transform="translate(76.5091,444)"
           id="g228"><path
             id="path230"
             style="fill:#000000;fill-opacity:1;fill-rule:nonzero;stroke:none"
             d="m 0,0 c 0,-2.322 -1.882,-4.205 -4.205,-4.205 -2.322,0 -4.205,1.883 -4.205,4.205 0,2.322 1.883,4.205 4.205,4.205 C -1.882,4.205 0,2.322 0,0" /></g><g
           transform="translate(76.5091,444)"
           id="g232"><path
             id="path234"
             style="fill:none;stroke:#000000;stroke-width:1;stroke-linecap:butt;stroke-linejoin:miter;stroke-miterlimit:10;stroke-dasharray:none;stroke-opacity:1"
             d="m 0,0 c 0,-2.322 -1.882,-4.205 -4.205,-4.205 -2.322,0 -4.205,1.883 -4.205,4.205 0,2.322 1.883,4.205 4.205,4.205 C -1.882,4.205 0,2.322 0,0 Z" /></g><g
           transform="translate(76.5091,458)"
           id="g236"><path
             id="path238"
             style="fill:#000000;fill-opacity:1;fill-rule:nonzero;stroke:none"
             d="m 0,0 c 0,-2.322 -1.882,-4.205 -4.205,-4.205 -2.322,0 -4.205,1.883 -4.205,4.205 0,2.322 1.883,4.205 4.205,4.205 C -1.882,4.205 0,2.322 0,0" /></g><g
           transform="translate(76.5091,458)"
           id="g240"><path
             id="path242"
             style="fill:none;stroke:#000000;stroke-width:1;stroke-linecap:butt;stroke-linejoin:miter;stroke-miterlimit:10;stroke-dasharray:none;stroke-opacity:1"
             d="m 0,0 c 0,-2.322 -1.882,-4.205 -4.205,-4.205 -2.322,0 -4.205,1.883 -4.205,4.205 0,2.322 1.883,4.205 4.205,4.205 C -1.882,4.205 0,2.322 0,0 Z" /></g><g
           transform="translate(75.5091,648)"
           id="g244"><path
             id="path246"
             style="fill:#000000;fill-opacity:1;fill-rule:nonzero;stroke:none"
             d="m 0,0 c 0,-2.322 -1.882,-4.205 -4.205,-4.205 -2.322,0 -4.205,1.883 -4.205,4.205 0,2.322 1.883,4.205 4.205,4.205 C -1.882,4.205 0,2.322 0,0" /></g><g
           transform="translate(75.5091,648)"
           id="g248"><path
             id="path250"
             style="fill:none;stroke:#000000;stroke-width:1;stroke-linecap:butt;stroke-linejoin:miter;stroke-miterlimit:10;stroke-dasharray:none;stroke-opacity:1"
             d="m 0,0 c 0,-2.322 -1.882,-4.205 -4.205,-4.205 -2.322,0 -4.205,1.883 -4.205,4.205 0,2.322 1.883,4.205 4.205,4.205 C -1.882,4.205 0,2.322 0,0 Z" /></g><path
           id="path252"
           style="fill:#000000;fill-opacity:1;fill-rule:nonzero;stroke:#000000;stroke-width:1;stroke-linecap:butt;stroke-linejoin:miter;stroke-miterlimit:10;stroke-dasharray:none;stroke-opacity:1"
           d="m 47.176,651.872 h -7.743 v -7.744 h 7.743 z" /><g
           transform="translate(43.3041,663)"
           id="g254"><path
             id="path256"
             style="fill:#000000;fill-opacity:1;fill-rule:nonzero;stroke:#000000;stroke-width:1;stroke-linecap:round;stroke-linejoin:miter;stroke-miterlimit:10;stroke-dasharray:none;stroke-opacity:1"
             d="M 0,0 7.062,-7.062" /></g><g
           transform="translate(50.3666,655.9375)"
           id="g258"><path
             id="path260"
             style="fill:#000000;fill-opacity:1;fill-rule:nonzero;stroke:#000000;stroke-width:1;stroke-linecap:round;stroke-linejoin:miter;stroke-miterlimit:10;stroke-dasharray:none;stroke-opacity:1"
             d="M 0,0 V -15.813" /></g><g
           transform="translate(50.3666,640.125)"
           id="g262"><path
             id="path264"
             style="fill:#000000;fill-opacity:1;fill-rule:nonzero;stroke:#000000;stroke-width:1;stroke-linecap:round;stroke-linejoin:miter;stroke-miterlimit:10;stroke-dasharray:none;stroke-opacity:1"
             d="M 0,0 -16.844,-16.844" /></g><g
           transform="translate(33.5228,623.2812)"
           id="g266"><path
             id="path268"
             style="fill:#000000;fill-opacity:1;fill-rule:nonzero;stroke:#000000;stroke-width:1;stroke-linecap:round;stroke-linejoin:miter;stroke-miterlimit:10;stroke-dasharray:none;stroke-opacity:1"
             d="M 0,0 V -216.724" /></g><g
           transform="translate(33.5228,406.5571)"
           id="g270"><path
             id="path272"
             style="fill:#000000;fill-opacity:1;fill-rule:nonzero;stroke:#000000;stroke-width:1;stroke-linecap:round;stroke-linejoin:miter;stroke-miterlimit:10;stroke-dasharray:none;stroke-opacity:1"
             d="M 0,0 12.508,-13.557" /></g><g
           transform="translate(46.0306,393)"
           id="g274"><path
             id="path276"
             style="fill:#000000;fill-opacity:1;fill-rule:nonzero;stroke:#000000;stroke-width:1;stroke-linecap:round;stroke-linejoin:miter;stroke-miterlimit:10;stroke-dasharray:none;stroke-opacity:1"
             d="M 0,0 H 12.273" /></g><g
           transform="translate(57.3041,663)"
           id="g278"><path
             id="path280"
             style="fill:#000000;fill-opacity:1;fill-rule:nonzero;stroke:#000000;stroke-width:1;stroke-linecap:round;stroke-linejoin:miter;stroke-miterlimit:10;stroke-dasharray:none;stroke-opacity:1"
             d="M 0,0 6.205,-7.062" /></g><g
           transform="translate(71.3041,663)"
           id="g282"><path
             id="path284"
             style="fill:#000000;fill-opacity:1;fill-rule:nonzero;stroke:#000000;stroke-width:1;stroke-linecap:round;stroke-linejoin:miter;stroke-miterlimit:10;stroke-dasharray:none;stroke-opacity:1"
             d="M 0,0 6.74,-6.74" /></g><g
           transform="translate(85.3041,663)"
           id="g286"><path
             id="path288"
             style="fill:#000000;fill-opacity:1;fill-rule:nonzero;stroke:#000000;stroke-width:1;stroke-linecap:round;stroke-linejoin:miter;stroke-miterlimit:10;stroke-dasharray:none;stroke-opacity:1"
             d="M 0,0 6.365,-6.365" /></g><g
           transform="translate(63.5091,655.9375)"
           id="g290"><path
             id="path292"
             style="fill:#000000;fill-opacity:1;fill-rule:nonzero;stroke:#000000;stroke-width:1;stroke-linecap:round;stroke-linejoin:miter;stroke-miterlimit:10;stroke-dasharray:none;stroke-opacity:1"
             d="M 0,0 V -15.813" /></g><g
           transform="translate(63.5091,640.125)"
           id="g294"><path
             id="path296"
             style="fill:#000000;fill-opacity:1;fill-rule:nonzero;stroke:#000000;stroke-width:1;stroke-linecap:round;stroke-linejoin:miter;stroke-miterlimit:10;stroke-dasharray:none;stroke-opacity:1"
             d="M 0,0 -12.031,-12.031" /></g><g
           transform="translate(51.4779,628.0937)"
           id="g298"><path
             id="path300"
             style="fill:#000000;fill-opacity:1;fill-rule:nonzero;stroke:#000000;stroke-width:1;stroke-linecap:round;stroke-linejoin:miter;stroke-miterlimit:10;stroke-dasharray:none;stroke-opacity:1"
             d="M 0,0 V -48.299" /></g><g
           transform="translate(51.4779,579.7949)"
           id="g302"><path
             id="path304"
             style="fill:#000000;fill-opacity:1;fill-rule:nonzero;stroke:#000000;stroke-width:1;stroke-linecap:round;stroke-linejoin:miter;stroke-miterlimit:10;stroke-dasharray:none;stroke-opacity:1"
             d="M 0,0 -12.859,-12.859" /></g><g
           transform="translate(38.6185,566.9355)"
           id="g306"><path
             id="path308"
             style="fill:#000000;fill-opacity:1;fill-rule:nonzero;stroke:#000000;stroke-width:1;stroke-linecap:round;stroke-linejoin:miter;stroke-miterlimit:10;stroke-dasharray:none;stroke-opacity:1"
             d="M 0,0 V -144.686" /></g><g
           transform="translate(38.6185,422.25)"
           id="g310"><path
             id="path312"
             style="fill:#000000;fill-opacity:1;fill-rule:nonzero;stroke:#000000;stroke-width:1;stroke-linecap:round;stroke-linejoin:miter;stroke-miterlimit:10;stroke-dasharray:none;stroke-opacity:1"
             d="M 0,0 18.552,-18.551" /></g><g
           transform="translate(57.1703,403.6987)"
           id="g314"><path
             id="path316"
             style="fill:#000000;fill-opacity:1;fill-rule:nonzero;stroke:#000000;stroke-width:1;stroke-linecap:round;stroke-linejoin:miter;stroke-miterlimit:10;stroke-dasharray:none;stroke-opacity:1"
             d="M 0,0 H 8.86" /></g><g
           transform="translate(66.0306,403.6987)"
           id="g318"><path
             id="path320"
             style="fill:#000000;fill-opacity:1;fill-rule:nonzero;stroke:#000000;stroke-width:1;stroke-linecap:round;stroke-linejoin:miter;stroke-miterlimit:10;stroke-dasharray:none;stroke-opacity:1"
             d="M 0,0 5.207,-5.206" /></g><g
           transform="translate(71.2377,398.4927)"
           id="g322"><path
             id="path324"
             style="fill:#000000;fill-opacity:1;fill-rule:nonzero;stroke:#000000;stroke-width:1;stroke-linecap:round;stroke-linejoin:miter;stroke-miterlimit:10;stroke-dasharray:none;stroke-opacity:1"
             d="M 0,0 V -11.993" /></g><g
           transform="translate(71.2377,386.5)"
           id="g326"><path
             id="path328"
             style="fill:#000000;fill-opacity:1;fill-rule:nonzero;stroke:#000000;stroke-width:1;stroke-linecap:round;stroke-linejoin:miter;stroke-miterlimit:10;stroke-dasharray:none;stroke-opacity:1"
             d="M 0,0 -12.55,-12.55" /></g><g
           transform="translate(58.6879,373.9502)"
           id="g330"><path
             id="path332"
             style="fill:#000000;fill-opacity:1;fill-rule:nonzero;stroke:#000000;stroke-width:1;stroke-linecap:round;stroke-linejoin:miter;stroke-miterlimit:10;stroke-dasharray:none;stroke-opacity:1"
             d="M 0,0 V -57.95" /></g><g
           transform="translate(91.6693,656.6353)"
           id="g334"><path
             id="path336"
             style="fill:#000000;fill-opacity:1;fill-rule:nonzero;stroke:#000000;stroke-width:1;stroke-linecap:round;stroke-linejoin:miter;stroke-miterlimit:10;stroke-dasharray:none;stroke-opacity:1"
             d="M 0,0 V -409.909" /></g><g
           transform="translate(91.6693,246.7266)"
           id="g338"><path
             id="path340"
             style="fill:#000000;fill-opacity:1;fill-rule:nonzero;stroke:#000000;stroke-width:1;stroke-linecap:round;stroke-linejoin:miter;stroke-miterlimit:10;stroke-dasharray:none;stroke-opacity:1"
             d="M 0,0 -33.088,-33.087" /></g><g
           transform="translate(58.5814,213.6396)"
           id="g342"><path
             id="path344"
             style="fill:#000000;fill-opacity:1;fill-rule:nonzero;stroke:#000000;stroke-width:1;stroke-linecap:round;stroke-linejoin:miter;stroke-miterlimit:10;stroke-dasharray:none;stroke-opacity:1"
             d="M 0,0 V -50.64" /></g><g
           transform="translate(58.3041,626)"
           id="g346"><path
             id="path348"
             style="fill:#000000;fill-opacity:1;fill-rule:nonzero;stroke:#000000;stroke-width:1;stroke-linecap:round;stroke-linejoin:miter;stroke-miterlimit:10;stroke-dasharray:none;stroke-opacity:1"
             d="M 0,0 V -44.25" /></g><g
           transform="translate(58.3041,581.75)"
           id="g350"><path
             id="path352"
             style="fill:#000000;fill-opacity:1;fill-rule:nonzero;stroke:#000000;stroke-width:1;stroke-linecap:round;stroke-linejoin:miter;stroke-miterlimit:10;stroke-dasharray:none;stroke-opacity:1"
             d="M 0,0 -6.841,-6.841" /></g><g
           transform="translate(51.4632,574.9092)"
           id="g354"><path
             id="path356"
             style="fill:#000000;fill-opacity:1;fill-rule:nonzero;stroke:#000000;stroke-width:1;stroke-linecap:round;stroke-linejoin:miter;stroke-miterlimit:10;stroke-dasharray:none;stroke-opacity:1"
             d="M 0,0 V -95.659" /></g><g
           transform="translate(51.4632,479.25)"
           id="g358"><path
             id="path360"
             style="fill:#000000;fill-opacity:1;fill-rule:nonzero;stroke:#000000;stroke-width:1;stroke-linecap:round;stroke-linejoin:miter;stroke-miterlimit:10;stroke-dasharray:none;stroke-opacity:1"
             d="M 0,0 6.546,-6.545" /></g><g
           transform="translate(59.3041,549)"
           id="g362"><path
             id="path364"
             style="fill:#000000;fill-opacity:1;fill-rule:nonzero;stroke:#000000;stroke-width:1;stroke-linecap:round;stroke-linejoin:miter;stroke-miterlimit:10;stroke-dasharray:none;stroke-opacity:1"
             d="M 0,0 H -7.826" /></g><g
           transform="translate(71.3041,648)"
           id="g366"><path
             id="path368"
             style="fill:#000000;fill-opacity:1;fill-rule:nonzero;stroke:#000000;stroke-width:1;stroke-linecap:round;stroke-linejoin:miter;stroke-miterlimit:10;stroke-dasharray:none;stroke-opacity:1"
             d="M 0,0 V -20.437" /></g><g
           transform="translate(71.3041,627.5625)"
           id="g370"><path
             id="path372"
             style="fill:#000000;fill-opacity:1;fill-rule:nonzero;stroke:#000000;stroke-width:1;stroke-linecap:round;stroke-linejoin:miter;stroke-miterlimit:10;stroke-dasharray:none;stroke-opacity:1"
             d="M 0,0 -6.055,-6.055" /></g><g
           transform="translate(65.2494,621.5078)"
           id="g374"><path
             id="path376"
             style="fill:#000000;fill-opacity:1;fill-rule:nonzero;stroke:#000000;stroke-width:1;stroke-linecap:round;stroke-linejoin:miter;stroke-miterlimit:10;stroke-dasharray:none;stroke-opacity:1"
             d="M 0,0 V -81.008" /></g><g
           transform="translate(65.2494,540.5)"
           id="g378"><path
             id="path380"
             style="fill:#000000;fill-opacity:1;fill-rule:nonzero;stroke:#000000;stroke-width:1;stroke-linecap:round;stroke-linejoin:miter;stroke-miterlimit:10;stroke-dasharray:none;stroke-opacity:1"
             d="M 0,0 -5.801,-5.801" /></g><g
           transform="translate(78.0443,656.2603)"
           id="g382"><path
             id="path384"
             style="fill:#000000;fill-opacity:1;fill-rule:nonzero;stroke:#000000;stroke-width:1;stroke-linecap:round;stroke-linejoin:miter;stroke-miterlimit:10;stroke-dasharray:none;stroke-opacity:1"
             d="M 0,0 V -30.26" /></g><g
           transform="translate(78.0443,626)"
           id="g386"><path
             id="path388"
             style="fill:#000000;fill-opacity:1;fill-rule:nonzero;stroke:#000000;stroke-width:1;stroke-linecap:round;stroke-linejoin:miter;stroke-miterlimit:10;stroke-dasharray:none;stroke-opacity:1"
             d="M 0,0 3.817,-3.818" /></g><g
           transform="translate(81.8617,622.1821)"
           id="g390"><path
             id="path392"
             style="fill:#000000;fill-opacity:1;fill-rule:nonzero;stroke:#000000;stroke-width:1;stroke-linecap:round;stroke-linejoin:miter;stroke-miterlimit:10;stroke-dasharray:none;stroke-opacity:1"
             d="M 0,0 V -115.182" /></g><g
           transform="translate(81.8617,507)"
           id="g394"><path
             id="path396"
             style="fill:#000000;fill-opacity:1;fill-rule:nonzero;stroke:#000000;stroke-width:1;stroke-linecap:round;stroke-linejoin:miter;stroke-miterlimit:10;stroke-dasharray:none;stroke-opacity:1"
             d="M 0,0 -16.908,-16.909" /></g><g
           transform="translate(64.9535,490.0913)"
           id="g398"><path
             id="path400"
             style="fill:#000000;fill-opacity:1;fill-rule:nonzero;stroke:#000000;stroke-width:1;stroke-linecap:round;stroke-linejoin:miter;stroke-miterlimit:10;stroke-dasharray:none;stroke-opacity:1"
             d="M 0,0 V -66.925" /></g><g
           transform="translate(64.9535,423.1665)"
           id="g402"><path
             id="path404"
             style="fill:#000000;fill-opacity:1;fill-rule:nonzero;stroke:#000000;stroke-width:1;stroke-linecap:round;stroke-linejoin:miter;stroke-miterlimit:10;stroke-dasharray:none;stroke-opacity:1"
             d="M 0,0 16.759,-16.759" /></g><g
           transform="translate(81.7123,406.4077)"
           id="g406"><path
             id="path408"
             style="fill:#000000;fill-opacity:1;fill-rule:nonzero;stroke:#000000;stroke-width:1;stroke-linecap:round;stroke-linejoin:miter;stroke-miterlimit:10;stroke-dasharray:none;stroke-opacity:1"
             d="M 0,0 V -14.908" /></g><g
           transform="translate(81.7123,391.5)"
           id="g410"><path
             id="path412"
             style="fill:#000000;fill-opacity:1;fill-rule:nonzero;stroke:#000000;stroke-width:1;stroke-linecap:round;stroke-linejoin:miter;stroke-miterlimit:10;stroke-dasharray:none;stroke-opacity:1"
             d="M 0,0 -18.435,-18.435" /></g><g
           transform="translate(63.2777,373.0654)"
           id="g414"><path
             id="path416"
             style="fill:#000000;fill-opacity:1;fill-rule:nonzero;stroke:#000000;stroke-width:1;stroke-linecap:round;stroke-linejoin:miter;stroke-miterlimit:10;stroke-dasharray:none;stroke-opacity:1"
             d="M 0,0 V -31.232" /></g><g
           transform="translate(63.2777,341.8335)"
           id="g418"><path
             id="path420"
             style="fill:#000000;fill-opacity:1;fill-rule:nonzero;stroke:#000000;stroke-width:1;stroke-linecap:round;stroke-linejoin:miter;stroke-miterlimit:10;stroke-dasharray:none;stroke-opacity:1"
             d="M 0,0 7.979,-7.98" /></g><g
           transform="translate(71.2572,333.8535)"
           id="g422"><path
             id="path424"
             style="fill:#000000;fill-opacity:1;fill-rule:nonzero;stroke:#000000;stroke-width:1;stroke-linecap:round;stroke-linejoin:miter;stroke-miterlimit:10;stroke-dasharray:none;stroke-opacity:1"
             d="M 0,0 V -27.187" /></g><g
           transform="translate(71.2572,306.667)"
           id="g426"><path
             id="path428"
             style="fill:#000000;fill-opacity:1;fill-rule:nonzero;stroke:#000000;stroke-width:1;stroke-linecap:round;stroke-linejoin:miter;stroke-miterlimit:10;stroke-dasharray:none;stroke-opacity:1"
             d="M 0,0 -12.796,-12.797" /></g><g
           transform="translate(58.4613,293.8701)"
           id="g430"><path
             id="path432"
             style="fill:#000000;fill-opacity:1;fill-rule:nonzero;stroke:#000000;stroke-width:1;stroke-linecap:round;stroke-linejoin:miter;stroke-miterlimit:10;stroke-dasharray:none;stroke-opacity:1"
             d="M 0,0 V -54.87" /></g></g></g></g></svg>